<?xml version="1.0" encoding="utf-8"?>
<!-- Generator: Adobe Illustrator 19.0.0, SVG Export Plug-In . SVG Version: 6.00 Build 0)  -->
<svg version="1.1" id="Layer_1" xmlns="http://www.w3.org/2000/svg" xmlns:xlink="http://www.w3.org/1999/xlink" x="0px" y="0px"
	 viewBox="0 0 271.2 88.2" style="enable-background:new 0 0 271.2 88.2;" xml:space="preserve">
<style type="text/css">
	.st0{fill:#94C947;}
</style>
<path class="st0" d="M144.9,34.8c-9.9,0.1-17.9,8.5-17.7,18.6c0.1,10.2,8.3,18.3,18.2,18.1c9.9-0.1,17.9-8.5,17.7-18.6
	C163,42.8,154.8,34.6,144.9,34.8z M145.3,64.4c-6.1,0.1-11.1-4.9-11.2-11.1C134,47.1,138.9,42,145,41.9c6.1-0.1,11.1,4.9,11.2,11.1
	C156.3,59.2,151.4,64.4,145.3,64.4z"/>
<path class="st0" d="M44.8,55.4c0.1-0.7,0.1-1.5,0.1-2.2c0-10.2-8.1-18.4-18-18.4c-9.9,0-18,8.2-18,18.4c0,10.2,8.1,18.4,18,18.4
	c7.8,0,14-3.8,17.1-9.5h-9c-1.9,1.5-4,2.4-8.1,2.4c-5.4,0-9.8-3.9-10.8-9.1L44.8,55.4z M27,41.9c4.7,0,8.7,3,10.3,7.2H16.7
	C18.3,44.9,22.3,41.9,27,41.9z"/>
<path class="st0" d="M194.6,62c-1.9,1.5-4.2,2.4-6.8,2.4c-6.1,0-11-5.1-11-11.3c0-6.2,4.9-11.3,11-11.3c2.8,0,5.3,1,7.2,2.7h8.7
	c-3-5.9-9-9.9-15.9-9.9c-9.9,0-18,8.2-18,18.4c0,10.2,8.1,18.4,18,18.4c6.8,0,12.7-3.8,15.8-9.5H194.6z"/>
<path class="st0" d="M103.8,34.8c-3.7,0-7.3,1.3-10.3,3.4V8.4l-7,2.5v60.6h7V48.2c1.9-3.7,5.9-6.3,10.3-6.3c6,0,10.2,3.4,10.5,10.7
	v19h6.3c0,0,0-18.8,0-18.8C120.6,42.5,113.7,34.8,103.8,34.8z"/>
<path class="st0" d="M240.3,35.3v4.2c-3.2-3-7.4-4.8-12.1-4.8c-9.9,0-18,8.2-18,18.4c0,10.2,8.1,18.4,18,18.4
	c4.7,0,8.9-1.8,12.1-4.8v4.8h7V37.9L240.3,35.3z M228.2,64.4c-6.1,0-11-5.1-11-11.3c0-6.2,4.9-11.3,11-11.3c6.1,0,11,5.1,11,11.3
	C239.2,59.4,234.3,64.4,228.2,64.4z"/>
<polygon class="st0" points="79.4,35.1 65.9,35.1 65.9,18.5 59,21 59,35.1 51.5,35.1 51.5,41.4 59,41.4 59,71.6 65.9,71.6
	65.9,41.4 79.4,41.4 "/>
<g>
	<path class="st0" d="M255.7,37.3V38h-1.6v4.4h-0.8V38h-1.5v-0.7H255.7z M260.6,42.4l-0.2-3.1c0-0.4,0-0.9,0-1.4h0
		c-0.1,0.5-0.3,1-0.4,1.5l-1.1,2.9h-0.6l-1-3c-0.1-0.4-0.3-0.9-0.4-1.4h0c0,0.5,0,0.9,0,1.4l-0.2,3.1h-0.7l0.4-5.1h1l1,2.8
		c0.1,0.4,0.2,0.8,0.4,1.3h0c0.1-0.5,0.2-0.9,0.4-1.3l1-2.7h1l0.4,5.1H260.6z"/>
</g>
</svg>
