<?xml version="1.0" encoding="utf-8"?>
<!-- Generator: Adobe Illustrator 19.0.0, SVG Export Plug-In . SVG Version: 6.00 Build 0)  -->
<svg version="1.1" id="Layer_1" xmlns="http://www.w3.org/2000/svg" xmlns:xlink="http://www.w3.org/1999/xlink" x="0px" y="0px"
	 viewBox="0 0 271.2 88.2" style="enable-background:new 0 0 271.2 88.2;" xml:space="preserve">
<style type="text/css">
	.st0{fill:#134B8E;}
	.st1{fill:#E6A623;}
</style>
<polygon class="st0" points="8.6,30.5 14.6,30.5 24.6,55.6 34.8,30.5 40.8,30.5 24.4,69.7 "/>
<polygon class="st0" points="64.5,30.5 64.5,66.9 84.7,66.9 84.7,61.7 70.1,61.7 70.1,49.5 84.3,49.5 84.3,44.4 70.1,44.4
	70.1,35.6 84.7,35.6 84.7,30.5 "/>
<path class="st0" d="M123.5,51.3c0,0,8-1.2,8-10.4s-9.4-10.3-9.4-10.3s-6.4-0.5-11-0.3v36.4h5.6V52h0.9l10.3,14.9h6.8L123.5,51.3z
	 M116.6,47.2V35.6h3.2c0,0,6.4-0.4,6.4,5.8c0,5.4-6.2,5.8-6.2,5.8H116.6z"/>
<rect x="159.5" y="30.4" class="st0" width="5.4" height="36.5"/>
<polygon class="st0" points="211.1,35.6 211.1,30.4 198.5,30.4 194.3,30.4 192.9,30.4 192.9,66.9 198.5,66.9 198.5,49.5 210.7,49.5
	210.7,44.3 198.5,44.3 198.5,35.6 "/>
<rect x="159.5" y="20" class="st1" width="5.4" height="5.3"/>
<rect x="236.8" y="30.4" class="st0" width="5.4" height="36.5"/>
<rect x="236.8" y="20" class="st1" width="5.4" height="5.3"/>
<polygon class="st0" points="253.7,67.3 254.5,67.3 254.5,62.9 256.2,62.9 256.2,62.2 252,62.2 252,62.9 253.7,62.9 "/>
<polygon class="st0" points="256.7,67.3 257.4,67.3 257.4,63.3 258.9,67.3 259.6,67.3 261.1,63.4 261.1,67.3 261.8,67.3 261.8,62.3
	260.8,62.3 259.2,66.3 257.6,62.3 256.7,62.3 "/>
</svg>
